#!OML:ASF I:\Actors\actors\Patient Classification 2\Patient 1\Session 1\actor1.ASF
:FULLY-SPECIFIED
:DEGREES
205
root -0.608836 18.657 6.23221 0.335706 2.21286 -3.42797
lowerback 2.56626 3.35517 0.978309
upperback -3.3364 4.60341 1.49261
thorax -4.93123 2.28164 0.681953
lowerneck -6.77609 -8.62419 -11.7698
upperneck 25.4309 -11.6409 5.51547
head 10.2591 -5.94808 2.56849
rclavicle -6.84118e-015 -2.78143e-015
rhumerus 23.8892 14.188 -47.16
rradius 109.371
rwrist -3.33877
rhand -40.2607 -13.8616
rfingers 7.12502
rthumb -13.2191 -43.4224
lclavicle -6.84118e-015 -2.78143e-015
lhumerus 40.3789 24.7425 33.8587
lradius 141.205
lwrist 8.6468
lhand -11.3667 -49.0236
lfingers 7.12502
lthumb 14.6672 -19.5623
rfemur 0 0 0
rtibia 0
rfoot 0 0
rtoes 0
lfemur -3.69861 -8.22485 -11.2621
ltibia 23.4227
lfoot -23.3796 11.6021
ltoes -56.075
206
root -0.608887 18.657 6.23747 0.353555 2.15201 -3.40583
lowerback 2.54462 3.346 1.02529
upperback -3.38738 4.59229 1.45153
thorax -4.96493 2.27332 0.614085
lowerneck -7.136 -8.62364 -11.6316
upperneck 25.9203 -11.6184 5.38975
head 10.4883 -5.93038 2.48731
rclavicle 1.65275e-014 4.9634e-015
rhumerus 24.618 13.8716 -47.105
rradius 108.51
rwrist -3.1708
rhand -40.2055 -14.2559
rfingers 7.12502
rthumb -13.1659 -43.8202
lclavicle 1.65275e-014 4.9634e-015
lhumerus 40.4611 24.6517 33.8532
lradius 141.15
lwrist 8.59843
lhand -11.5745 -48.6881
lfingers 7.12502
lthumb 14.467 -19.2124
rfemur 0 0 0
rtibia 0
rfoot 0 0
rtoes 0
lfemur -3.68467 -8.16096 -11.2862
ltibia 23.4286
lfoot -23.4438 11.6219
ltoes -56.1367
207
root -0.609533 18.6571 6.24503 0.397955 2.10262 -3.40115
lowerback 2.45984 3.3603 1.10697
upperback -3.44569 4.6134 1.4194
thorax -4.96868 2.2802 0.537864
lowerneck -7.39618 -8.66512 -11.7428
upperneck 26.3484 -11.6774 5.47147
head 10.7175 -5.95393 2.51206
rclavicle 4.19638e-014 4.8578e-015
rhumerus 25.0132 13.5441 -47.1755
rradius 107.704
rwrist -3.14459
rhand -40.2617 -14.1585
rfingers 7.12502
rthumb -13.22 -43.7193
lclavicle 4.19638e-014 4.8578e-015
lhumerus 40.5439 24.5975 33.9828
lradius 141.098
lwrist 8.53781
lhand -11.8133 -48.4928
lfingers 7.12502
lthumb 14.2369 -19.0008
rfemur 0 0 0
rtibia 0
rfoot 0 0
rtoes 0
lfemur -3.69129 -8.12459 -11.2882
ltibia 23.425
lfoot -23.4911 11.6309
ltoes -56.1006
208
root -0.609659 18.6562 6.2535 0.412373 2.08371 -3.41265
lowerback 2.34821 3.37513 1.21622
upperback -3.4763 4.63557 1.39945
thorax -4.92697 2.28721 0.461689
lowerneck -7.47773 -8.7435 -12.1424
upperneck 26.6056 -11.8097 5.77338
head 10.8935 -6.01932 2.6594
rclavicle 5.37581e-014 1.01007e-014
rhumerus 25.1482 13.2265 -47.3607
rradius 106.945
rwrist -3.01097
rhand -40.3559 -13.8308
rfingers 7.12502
rthumb -13.3109 -43.3857
lclavicle 5.37581e-014 1.01007e-014
lhumerus 40.5821 24.5583 34.1282
lradius 141.074
lwrist 8.58015
lhand -11.6517 -48.6195
lfingers 7.12502
lthumb 14.3926 -19.1385
rfemur 0 0 0
rtibia 0
rfoot 0 0
rtoes 0
lfemur -3.67244 -8.12412 -11.2829
ltibia 23.4199
lfoot -23.5179 11.6595
ltoes -56.0945
209
root -0.608856 18.6547 6.26097 0.408661 2.11508 -3.38834
lowerback 2.2655 3.36198 1.29179
upperback -3.50934 4.61854 1.36197
thorax -4.90524 2.27542 0.386699
lowerneck -7.46764 -8.81676 -12.5034
upperneck 26.8062 -11.941 6.0426
head 11.0272 -6.08655 2.79404
rclavicle 1.4519e-014 1.00138e-014
rhumerus 25.216 13.0306 -47.5964
rradius 106.328
rwrist -2.86119
rhand -40.4765 -14.2472
rfingers 7.12502
rthumb -13.4271 -43.7945
lclavicle 1.4519e-014 1.00138e-014
lhumerus 40.5649 24.4171 34.2088
lradius 141.046
lwrist 8.60232
lhand -11.438 -48.7596
lfingers 7.12502
lthumb 14.5985 -19.2934
rfemur 0 0 0
rtibia 0
rfoot 0 0
rtoes 0
lfemur -3.65157 -8.18175 -11.3241
ltibia 23.4239
lfoot -23.5441 11.681
ltoes -56.0956
210
root -0.609007 18.6538 6.268 0.40679 2.163 -3.33484
lowerback 2.20875 3.33751 1.32241
upperback -3.5623 4.585 1.31487
thorax -4.92188 2.25652 0.325272
lowerneck -7.34928 -8.8608 -12.8129
upperneck 26.9194 -12.0506 6.3189
head 11.1017 -6.14114 2.93203
rclavicle 2.67956e-014 3.97569e-016
rhumerus 25.2307 12.8645 -47.8912
rradius 105.816
rwrist -3.08196
rhand -40.3853 -13.4276
rfingers 7.12502
rthumb -13.3392 -42.9806
lclavicle 2.67956e-014 3.97569e-016
lhumerus 40.4883 24.1678 34.2692
lradius 140.98
lwrist 8.59264
lhand -11.4641 -48.7148
lfingers 7.12502
lthumb 14.5734 -19.2468
rfemur 0 0 0
rtibia 0
rfoot 0 0
rtoes 0
lfemur -3.63653 -8.23256 -11.3852
ltibia 23.4323
lfoot -23.5696 11.6483
ltoes -56.0124
211
root -0.611329 18.6529 6.27485 0.391716 2.1955 -3.326
lowerback 2.15148 3.32283 1.37139
upperback -3.60449 4.56595 1.28742
thorax -4.92731 2.24462 0.273387
lowerneck -7.33736 -8.88956 -13.0868
upperneck 27.1202 -12.1185 6.52829
head 11.2197 -6.17785 3.0421
rclavicle 1.01567e-015 8.89561e-015
rhumerus 25.1711 12.8398 -48.1171
rradius 105.468
rwrist -2.99542
rhand -40.5223 -12.9656
rfingers 7.12502
rthumb -13.4713 -42.5099
lclavicle 1.01567e-015 8.89561e-015
lhumerus 40.3999 23.9355 34.3799
lradius 140.904
lwrist 8.65305
lhand -11.6413 -48.6246
lfingers 7.12502
lthumb 14.4026 -19.1443
rfemur 0 0 0
rtibia 0
rfoot 0 0
rtoes 0
lfemur -3.60843 -8.22417 -11.3853
ltibia 23.4377
lfoot -23.5545 11.6259
ltoes -56.0389
212
root -0.614731 18.6513 6.2823 0.376417 2.22863 -3.35477
lowerback 2.07406 3.31097 1.44716
upperback -3.63595 4.55107 1.26109
thorax -4.90812 2.23406 0.209245
lowerneck -7.78317 -8.96144 -13.2111
upperneck 27.708 -12.1805 6.51738
head 11.5526 -6.20908 3.02905
rclavicle 3.03581e-014 4.09993e-015
rhumerus 25.122 12.9011 -48.3464
rradius 105.283
rwrist -2.88502
rhand -40.6095 -13.1265
rfingers 7.12502
rthumb -13.5553 -42.6652
lclavicle 3.03581e-014 4.09993e-015
lhumerus 40.3684 23.7916 34.5263
lradius 140.919
lwrist 8.57906
lhand -12.0463 -48.4971
lfingers 7.12502
lthumb 14.0124 -18.9894
rfemur 0 0 0
rtibia 0
rfoot 0 0
rtoes 0
lfemur -3.58295 -8.2428 -11.3512
ltibia 23.4454
lfoot -23.5186 11.6678
ltoes -56.2098
213
root -0.617765 18.6499 6.29003 0.380305 2.28309 -3.3767
lowerback 1.96719 3.29338 1.49014
upperback -3.66089 4.52585 1.23005
thorax -4.86755 2.21978 0.161083
lowerneck -8.54411 -9.07632 -13.149
upperneck 28.5124 -12.2498 6.28754
head 12.011 -6.24045 2.88942
rclavicle 4.28257e-014 -7.90169e-015
rhumerus 25.0834 13.0316 -48.6101
rradius 105.246
rwrist -2.90068
rhand -40.7299 -13.3295
rfingers 7.12502
rthumb -13.6713 -42.8604
lclavicle 4.28257e-014 -7.90169e-015
lhumerus 40.3508 23.7226 34.6537
lradius 141.012
lwrist 8.33268
lhand -12.1987 -48.281
lfingers 7.12502
lthumb 13.8655 -18.7631
rfemur 0 0 0
rtibia 0
rfoot 0 0
rtoes 0
lfemur -3.57596 -8.37784 -11.3343
ltibia 23.4581
lfoot -23.5499 11.7275
ltoes -56.2067
214
root -0.620994 18.6491 6.29691 0.385087 2.3262 -3.40309
lowerback 1.89548 3.29236 1.5108
upperback -3.68902 4.52281 1.19889
thorax -4.852 2.21706 0.121407
lowerneck -8.96806 -9.16008 -13.1244
upperneck 29.0383 -12.3212 6.16133
head 12.3068 -6.27368 2.8076
rclavicle -5.86415e-015 -4.17448e-015
rhumerus 24.776 13.2377 -48.9271
rradius 105.442
rwrist -2.83362
rhand -40.8676 -13.2713
rfingers 7.12502
rthumb -13.804 -42.7933
lclavicle -5.86415e-015 -4.17448e-015
lhumerus 40.3423 23.6457 34.7565
lradius 141.036
lwrist 8.15495
lhand -11.61 -48.1079
lfingers 7.12502
lthumb 14.4328 -18.6298
rfemur 0 0 0
rtibia 0
rfoot 0 0
rtoes 0
lfemur -3.56418 -8.48738 -11.3018
ltibia 23.4632
lfoot -23.6116 11.7303
ltoes -56.0729
215
root -0.625609 18.648 6.30309 0.38741 2.35506 -3.41317
lowerback 1.87682 3.30391 1.49322
upperback -3.72167 4.53623 1.16195
thorax -4.87374 2.22338 0.0923831
lowerneck -9.1359 -9.22998 -13.2426
upperneck 29.3696 -12.4138 6.20302
head 12.5008 -6.31896 2.81934
rclavicle 1.9748e-014 2.68359e-015
rhumerus 24.2509 13.4972 -49.2739
rradius 105.901
rwrist -2.70907
rhand -40.8303 -13.06
rfingers 7.12502
rthumb -13.7681 -42.5844
lclavicle 1.9748e-014 2.68359e-015
lhumerus 40.3213 23.5525 34.7661
lradius 141.044
lwrist 7.98344
lhand -11.173 -47.8887
lfingers 7.12502
lthumb 14.8538 -18.4412
rfemur 0 0 0
rtibia 0
rfoot 0 0
rtoes 0
lfemur -3.54896 -8.43291 -11.2667
ltibia 23.4561
lfoot -23.5847 11.6796
ltoes -56.091
